<svg width="13" height="12" viewBox="0 0 13 12" fill="none" xmlns="http://www.w3.org/2000/svg">
<path d="M11.7 9.89L7.82 6L11.71 2.11C12.1 1.72 12.1 1.09 11.71 0.7C11.32 0.31 10.69 0.31 10.3 0.7L5.71 5.29C5.32 5.68 5.32 6.31 5.71 6.7L10.3 11.29C10.69 11.68 11.32 11.68 11.71 11.29C12.09 10.91 12.09 10.27 11.7 9.89ZM1 5.18986e-09C1.55 8.04429e-09 2 0.45 2 1L2 11C2 11.55 1.55 12 1 12C0.45 12 -5.99429e-08 11.55 -5.70885e-08 11L-5.18986e-09 1C-2.33544e-09 0.45 0.45 2.33544e-09 1 5.18986e-09Z" fill="#99C2EC"/>
</svg>
