<svg width="496" height="100" viewBox="0 0 496 100" fill="none" xmlns="http://www.w3.org/2000/svg">
<g clip-path="url(#clip0_24_1754)">
<rect width="496" height="100" fill="white"/>
<rect width="496" height="100" fill="url(#paint0_linear_24_1754)"/>
<g clip-path="url(#clip1_24_1754)">
<path d="M278.996 112.207V66.7975C278.996 58.8064 272.519 52.3301 264.528 52.3301H231.813C223.822 52.3301 217.346 58.8064 217.346 66.7975V113.941L278.996 112.207Z" fill="#FBC9C6"/>
<path d="M29.3223 112.386V66.9772C29.3223 58.9861 35.7986 52.5098 43.7897 52.5098H76.5047C84.4958 52.5098 90.9721 58.9861 90.9721 66.9772V114.121L29.3223 112.386Z" fill="#A94341"/>
<path d="M102.549 101.069C97.8625 109.227 91.9671 112.376 91.9671 112.376H67.4434C67.4434 112.373 106.123 94.8457 102.549 101.069Z" fill="#233862"/>
<path d="M119.757 108.638L112.386 128.47L102.763 154.364C102.763 154.364 100.153 154.617 97.6518 153.897C95.3504 153.233 92.707 151.49 92.707 151.49C92.707 151.49 95.3782 123.687 100.362 107.727C101.64 103.63 103.072 100.316 104.651 98.4513C112.381 89.3205 119.757 108.638 119.757 108.638Z" fill="#233862"/>
<path d="M112.264 77.1413C107.436 75.5848 93.663 77.5833 79.8293 80.2905L76.9331 75.5125L47.0532 73.1777C47.0532 73.1777 37.1942 95.0442 42.592 108.975C43.3842 111.024 44.963 112.336 47.648 112.38H48.0844C48.0844 112.38 65.8678 112.369 71.6436 112.369C86.503 112.369 103.091 102.154 105.24 101.726C108.753 101.023 110.157 108.05 113.67 115.424C117.183 122.801 146.688 148.091 146.688 148.091C146.688 148.091 151.221 148.136 153.095 147.433C155.11 146.677 155.847 145.695 155.847 145.695C155.847 145.695 123.154 80.6546 112.264 77.1413Z" fill="#F0A6A2"/>
<path d="M75.7579 -11.4933C71.9305 -13.5029 66.1046 -13.7753 65.1596 -13.9031C53.8358 -15.4235 47.0232 1.02847 46.6202 6.01493C45.8808 15.204 41.0194 16.6049 34.179 22.3613C20.4593 33.8991 24.484 47.3075 31.9832 52.2912C36.4832 55.2792 44.4188 52.2912 44.4188 52.2912C44.53 52.369 66.1157 40.2253 76.7558 34.3661C92.7102 32.098 85.514 -6.37063 75.7579 -11.4933Z" fill="#A94341"/>
<path d="M67.8403 29.3764C67.8876 29.407 62.6037 31.2109 59.0737 29.646C55.7522 28.1785 53.2339 22.7111 53.2839 22.7084C54.796 22.6389 56.4554 21.3186 57.734 12.6465L58.3788 12.8772L69.1995 16.7713C69.1995 16.7713 68.4157 20.2429 67.907 23.5506C67.4762 26.3245 67.2483 28.9845 67.8403 29.3764Z" fill="#FFB27D"/>
<path d="M69.1965 16.773C69.1965 16.773 68.4127 20.2446 67.904 23.5523C61.689 22.4321 59.2486 16.2394 58.373 12.8789L69.1965 16.773Z" fill="#ED975D"/>
<path d="M70.8056 20.2192C70.8056 20.2192 55.9991 18.2319 57.3777 9.03165C58.7564 -0.16857 57.7752 -6.62262 67.2867 -5.74429C76.7983 -4.86597 78.1046 -1.07747 78.3909 2.10508C78.68 5.28763 74.6942 20.5 70.8056 20.2192Z" fill="#FFB27D"/>
<path d="M77.8558 -2.93988C77.8558 -2.93988 68.3776 5.22914 61.9319 5.88511C55.4862 6.54385 53.043 4.47311 53.043 4.47311C53.043 4.47311 56.8426 1.31835 59.1301 -3.77374C59.8028 -5.27468 61.2287 -6.30311 62.8686 -6.44486C67.4715 -6.83955 76.1964 -7.023 77.8558 -2.93988Z" fill="#A94341"/>
<path d="M71.9297 -3.67052C71.9297 -3.67052 75.1011 -0.604707 76.099 1.66894C77.0635 3.86199 77.3525 9.11251 76.5854 11.1972C76.5854 11.1972 81.5246 1.59112 78.7284 -3.0757C75.7627 -8.02603 71.9297 -3.67052 71.9297 -3.67052Z" fill="#A94341"/>
<path d="M80.3067 51.1883C79.8592 81.1599 80.1844 74.8977 76.9046 77.7411C76.1152 78.4249 73.8944 78.8335 70.9703 79.028C61.7812 79.6368 45.6238 78.1247 45.0096 76.4264C42.8888 70.5505 44.3869 68.7243 42.6192 59.727C42.4357 58.7709 42.2078 57.7341 41.9382 56.6056C40.4622 50.4267 39.028 48.3226 44.2591 38.397C49.0037 29.4052 53.9318 22.1062 54.3765 22.3702C66.8927 29.7999 67.9017 23.5543 67.9017 23.5543C67.9017 23.5543 80.5263 36.5708 80.3067 51.1883Z" fill="#F9C5C1"/>
<path d="M67.9043 23.5508C67.9043 23.5508 80.7846 25.7355 82.2967 31.2806C83.8087 36.8258 92.7088 69.4268 92.7088 69.4268C92.7088 69.4268 86.1602 70.6026 83.1361 67.5784C80.112 64.5543 72.61 39.5164 72.61 39.5164L67.9043 23.5508Z" fill="#F9C5C1"/>
<path d="M70.9722 79.0299C61.7831 79.6387 45.6258 78.1266 45.0115 76.4283C42.8907 70.5524 44.3889 68.7263 42.6211 59.7289L47.0544 47.2461C47.0544 47.2461 46.3206 61.1465 50.4204 64.8016C54.5147 68.4566 67.2032 71.8588 69.1961 74.9135C70.1551 76.3783 70.786 77.8487 70.9722 79.0299Z" fill="#F2AFAB"/>
<path d="M60.4414 73.1809C60.4414 73.1809 69.5082 71.163 70.9702 71.9663C72.4323 72.7696 76.0095 75.702 76.457 76.7221C76.9045 77.7421 73.1994 75.9466 71.9959 75.6241C71.2148 75.4157 69.1608 76.1272 68.1435 76.4663C63.863 77.8922 61.2419 77.1584 61.2419 77.1584L60.4414 73.1809Z" fill="#FFB27D"/>
<path d="M54.371 22.3633C54.371 22.3633 42.1967 23.1138 37.9829 28.9897C32.0487 37.2643 20.2802 72.5281 27.0261 77.2311C34.6225 82.5261 61.595 78.6153 61.595 78.6153C61.595 78.6153 62.4928 74.421 61.2448 72.3891C59.9968 70.3601 39.7007 67.0803 38.764 66.1436C37.8273 65.2069 50.4741 47.8765 50.4741 45.0664C50.4713 42.2619 54.371 22.3633 54.371 22.3633Z" fill="#F9C5C1"/>
<path d="M71.4121 74.4902C71.4121 74.4902 73.3105 76.9418 73.9359 77.2336C74.5585 77.5255 74.9616 77.4532 74.9616 77.4532L73.6802 75.149L71.4121 74.4902Z" fill="#FFB27D"/>
<path d="M70.9727 71.9668L76.4956 74.649C76.4956 74.649 76.2593 75.0326 75.5811 75.002C74.9001 74.9715 73.1852 74.3433 73.1852 74.3433L70.9727 71.9668Z" fill="#FFB27D"/>
<path d="M73.9336 80.9852H117.625L130.769 48.3008H87.1447L73.9336 80.9852Z" fill="#FFEEEE"/>
<path d="M118.136 79.7129H60.4414V80.9859H117.625L118.136 79.7129Z" fill="#FFEEEE"/>
<path d="M106.596 64.6435C106.923 63.4956 106.262 62.5645 105.111 62.5645C103.963 62.5645 102.765 63.4956 102.435 64.6435C102.104 65.7915 102.768 66.7226 103.919 66.7226C105.067 66.7226 106.265 65.7915 106.596 64.6435Z" fill="#A94341"/>
<path d="M302.127 185H302.254C303.002 185 303.605 184.346 303.589 183.554L301.568 90.7737L295.611 90.0371L300.69 183.56C300.731 184.369 301.362 185 302.127 185Z" fill="#A94341"/>
<path d="M60.6577 185H60.5298C59.7821 185 59.179 184.346 59.1957 183.554L61.2164 90.7737L67.1729 90.0371L62.0947 183.56C62.053 184.369 61.422 185 60.6577 185Z" fill="#A94341"/>
<path d="M309.297 92.4819H54.4872C52.3998 92.4819 50.707 90.7892 50.707 88.7018V85.0634C50.707 82.9759 52.3998 81.2832 54.4872 81.2832H309.3C311.387 81.2832 313.08 82.9759 313.08 85.0634V88.7018C313.077 90.792 311.385 92.4819 309.297 92.4819Z" fill="#A94341"/>
<path d="M224.925 81.286H181.236L168.092 48.6016H211.716L224.925 81.286Z" fill="#FFEEEE"/>
<path d="M180.723 80.0117H238.417V81.2875H181.237L180.723 80.0117Z" fill="#FFEEEE"/>
<path d="M192.265 64.9443C191.934 63.7964 192.598 62.8652 193.749 62.8652C194.897 62.8652 196.095 63.7964 196.426 64.9443C196.756 66.0923 196.089 67.0234 194.941 67.0234C193.791 67.0262 192.593 66.095 192.265 64.9443Z" fill="#A94341"/>
</g>
</g>
<defs>
<linearGradient id="paint0_linear_24_1754" x1="-100" y1="-112" x2="471.5" y2="100" gradientUnits="userSpaceOnUse">
<stop stop-color="#CE5347"/>
<stop offset="1" stop-color="#FFABAB"/>
</linearGradient>
<clipPath id="clip0_24_1754">
<rect width="496" height="100" fill="white"/>
</clipPath>
<clipPath id="clip1_24_1754">
<rect width="288.078" height="199" fill="white" transform="translate(25 -14)"/>
</clipPath>
</defs>
</svg>
