<?xml version="1.0" encoding="UTF-8"?>
<svg fill="none" viewBox="0 0 496 100" xmlns="http://www.w3.org/2000/svg">
<g clip-path="url(#c)">
<rect width="496" height="100" fill="#fff"/>
<rect width="496" height="100" fill="url(#a)"/>
<g clip-path="url(#b)">
<path d="m279 112.21v-45.41c0-7.9911-6.477-14.467-14.468-14.467h-32.715c-7.991 0-14.467 6.4763-14.467 14.467v47.144l61.65-1.734z" fill="#FBC9C6"/>
<path d="m29.322 112.39v-45.409c0-7.9911 6.4763-14.467 14.467-14.467h32.715c7.9911 0 14.467 6.4763 14.467 14.467v47.144l-61.65-1.735z" fill="#A94341"/>
<path d="m102.55 101.07c-4.6865 8.158-10.582 11.307-10.582 11.307h-24.524c0-3e-3 38.68-17.53 35.106-11.307z" fill="#233862"/>
<path d="m119.76 108.64-7.371 19.832-9.623 25.894s-2.61 0.253-5.1112-0.467c-2.3014-0.664-4.9448-2.407-4.9448-2.407s2.6712-27.803 7.655-43.763c1.278-4.097 2.71-7.411 4.289-9.2757 7.73-9.1308 15.106 10.187 15.106 10.187z" fill="#233862"/>
<path d="m112.26 77.141c-4.828-1.5565-18.601 0.442-32.435 3.1492l-2.8962-4.778-29.88-2.3348s-9.859 21.866-4.4612 35.797c0.7922 2.049 2.371 3.361 5.056 3.405h0.4364s17.783-0.011 23.559-0.011c14.859 0 31.447-10.215 33.596-10.643 3.513-0.703 4.917 6.324 8.43 13.698 3.513 7.377 33.018 32.667 33.018 32.667s4.533 0.045 6.407-0.658c2.015-0.756 2.752-1.738 2.752-1.738s-32.693-65.04-43.583-68.554z" fill="#F0A6A2"/>
<path d="m75.758-11.493c-3.8274-2.0096-9.6533-2.282-10.598-2.4098-11.324-1.5204-18.136 14.932-18.539 19.918-0.7394 9.1891-5.6008 10.59-12.441 16.346-13.72 11.538-9.695 24.946-2.1958 29.93 4.5 2.988 12.436 0 12.436 0 0.1112 0.0778 21.697-12.066 32.337-17.925 15.954-2.2681 8.7582-40.737-0.9979-45.859z" fill="#A94341"/>
<path d="m67.84 29.376c0.0473 0.0306-5.2366 1.8345-8.7666 0.2696-3.3215-1.4675-5.8398-6.9349-5.7898-6.9376 1.5121-0.0695 3.1715-1.3898 4.4501-10.062l0.6448 0.2307 10.821 3.8941s-0.7838 3.4716-1.2925 6.7793c-0.4308 2.7739-0.6587 5.4339-0.0667 5.8258z" fill="#FFB27D"/>
<path d="m69.196 16.773s-0.7838 3.4716-1.2925 6.7793c-6.215-1.1202-8.6554-7.3129-9.531-10.673l10.824 3.8941z" fill="#ED975D"/>
<path d="m70.806 20.219s-14.806-1.9873-13.428-11.188c1.3787-9.2002 0.3975-15.654 9.909-14.776 9.5116 0.87832 10.818 4.6668 11.104 7.8494 0.2891 3.1826-3.6967 18.395-7.5853 18.114z" fill="#FFB27D"/>
<path d="m77.856-2.9399s-9.4782 8.169-15.924 8.825c-6.4457 0.65874-8.8889-1.412-8.8889-1.412s3.7996-3.1548 6.0871-8.2468c0.6727-1.5009 2.0986-2.5294 3.7385-2.6711 4.6029-0.39469 13.328-0.57814 14.987 3.505z" fill="#A94341"/>
<path d="m71.93-3.6705s3.1714 3.0658 4.1693 5.3395c0.9645 2.193 1.2535 7.4436 0.4864 9.5283 0 0 4.9392-9.6061 2.143-14.273-2.9657-4.9503-6.7987-0.59482-6.7987-0.59482z" fill="#A94341"/>
<path d="m80.307 51.188c-0.4475 29.972-0.1223 23.709-3.4021 26.553-0.7894 0.6838-3.0102 1.0924-5.9343 1.2869-9.1891 0.6088-25.346-0.9033-25.961-2.6016-2.1208-5.8759-0.6227-7.7021-2.3904-16.699-0.1835-0.9561-0.4114-1.9929-0.681-3.1214-1.476-6.1789-2.9102-8.283 2.3209-18.209 4.7446-8.9918 9.6727-16.291 10.117-16.027 12.516 7.4297 13.525 1.1841 13.525 1.1841s12.625 13.016 12.405 27.634z" fill="#F9C5C1"/>
<path d="m67.904 23.551s12.88 2.1847 14.392 7.7298c1.512 5.5452 10.412 38.146 10.412 38.146s-6.5486 1.1758-9.5727-1.8484c-3.0241-3.0241-10.526-28.062-10.526-28.062l-4.7057-15.966z" fill="#F9C5C1"/>
<path d="m70.972 79.03c-9.1891 0.6088-25.346-0.9033-25.961-2.6016-2.1208-5.8759-0.6226-7.702-2.3904-16.699l4.4333-12.483s-0.7338 13.9 3.366 17.556c4.0943 3.655 16.783 7.0572 18.776 10.112 0.959 1.4648 1.5899 2.9352 1.7761 4.1164z" fill="#F2AFAB"/>
<path d="m60.441 73.181s9.0668-2.0179 10.529-1.2146c1.4621 0.8033 5.0393 3.7357 5.4868 4.7558 0.4475 1.02-3.2576-0.7755-4.4611-1.098-0.7811-0.2084-2.8351 0.5031-3.8524 0.8422-4.2805 1.4259-6.9016 0.6921-6.9016 0.6921l-0.8005-3.9775z" fill="#FFB27D"/>
<path d="m54.371 22.363s-12.174 0.7505-16.388 6.6264c-5.9342 8.2746-17.703 43.538-10.957 48.241 7.5964 5.295 34.569 1.3842 34.569 1.3842s0.8978-4.1943-0.3502-6.2262c-1.248-2.029-21.544-5.3088-22.481-6.2455s11.71-18.267 11.71-21.077c-0.0028-2.8045 3.8969-22.703 3.8969-22.703z" fill="#F9C5C1"/>
<path d="m71.412 74.49s1.8984 2.4516 2.5238 2.7434c0.6226 0.2919 1.0257 0.2196 1.0257 0.2196l-1.2814-2.3042-2.2681-0.6588z" fill="#FFB27D"/>
<path d="m70.973 71.967 5.5229 2.6822s-0.2363 0.3836-0.9145 0.353c-0.681-0.0305-2.3959-0.6587-2.3959-0.6587l-2.2125-2.3765z" fill="#FFB27D"/>
<path d="m73.934 80.985h43.691l13.144-32.684h-43.624l-13.211 32.684z" fill="#fee"/>
<path d="m118.14 79.713h-57.695v1.273h57.184l0.511-1.273z" fill="#fee"/>
<path d="m106.6 64.644c0.327-1.1479-0.334-2.079-1.485-2.079-1.148 0-2.346 0.9311-2.676 2.079-0.331 1.148 0.333 2.0791 1.484 2.0791 1.148 0 2.346-0.9311 2.677-2.0791z" fill="#A94341"/>
<path d="m302.13 185h0.127c0.748 0 1.351-0.654 1.335-1.446l-2.021-92.78-5.957-0.7366 5.079 93.523c0.041 0.809 0.672 1.44 1.437 1.44z" fill="#A94341"/>
<path d="m60.658 185h-0.1279c-0.7477 0-1.3508-0.654-1.3341-1.446l2.0207-92.78 5.9565-0.7366-5.0782 93.523c-0.0417 0.809-0.6727 1.44-1.437 1.44z" fill="#A94341"/>
<path d="m309.3 92.482h-254.81c-2.0874 0-3.7802-1.6927-3.7802-3.7801v-3.6384c0-2.0875 1.6928-3.7802 3.7802-3.7802h254.81c2.087 0 3.78 1.6927 3.78 3.7802v3.6384c-3e-3 2.0902-1.695 3.7801-3.783 3.7801z" fill="#A94341"/>
<path d="m224.92 81.286h-43.689l-13.144-32.684h43.624l13.209 32.684z" fill="#fee"/>
<path d="m180.72 80.012h57.694v1.2758h-57.18l-0.514-1.2758z" fill="#fee"/>
<path d="m192.26 64.944c-0.331-1.1479 0.333-2.0791 1.484-2.0791 1.148 0 2.346 0.9312 2.677 2.0791 0.33 1.148-0.337 2.0791-1.485 2.0791-1.15 0.0028-2.348-0.9284-2.676-2.0791z" fill="#A94341"/>
</g>
</g>
<defs>
<linearGradient id="a" x1="-100" x2="471.5" y1="-112" y2="100" gradientUnits="userSpaceOnUse">
<stop stop-color="#CE5347" offset="0"/>
<stop stop-color="#FFABAB" offset="1"/>
</linearGradient>
<clipPath id="c">
<rect width="496" height="100" fill="#fff"/>
</clipPath>
<clipPath id="b">
<rect transform="translate(25 -14)" width="288.08" height="199" fill="#fff"/>
</clipPath>
</defs>
</svg>
