<?xml version="1.0" encoding="UTF-8"?>
<svg viewBox="0 0 14 18" xmlns="http://www.w3.org/2000/svg">
<g class="layer">
<title>Layer 1</title>
<path d="m7.1487 3.1409-2.79-2.78c-0.2-0.19-0.51-0.19-0.71 0l-2.79 2.78c-0.32 0.31-0.09 0.85 0.35 0.85h1.8v6.01c0 0.55 0.45 1 1 1s1-0.45 1-1v-6.01h1.79c0.45 0 0.67-0.54 0.35-0.85zm3.21 14.51 2.79-2.78c0.32-0.31 0.09-0.85-0.35-0.85h-1.79v-6.02c0-0.55-0.45-1-1-1s-1 0.45-1 1v6.01h-1.79c-0.45 0-0.67 0.54-0.35 0.85l2.79 2.78c0.19 0.2 0.51 0.2 0.7 0.01z" fill="url(#a)"/>
</g>
<defs>
<linearGradient id="a" x1=".5495" x2=".51434" y1=".53906" y2=".50391">
<stop stop-color="#99C2EC" offset="0"/>
<stop stop-color="#ff007f" stop-opacity=".99609" offset="1"/>
</linearGradient>
</defs>
</svg>
